<svg width="18" height="10" viewBox="0 0 18 10" xmlns="http://www.w3.org/2000/svg"><title>Group 6</title><g fill="#3777BC" fill-rule="evenodd"><path d="M7.565.798h2.03v2.006H5.71C6.527 1.77 7.24.798 7.565.798zm5.323 0c.325 0 .77.916 1.444 2.006h-3.62L10.707.798h2.18zm3.41 2.18h-.757c-.5-1.05-1.788-2.98-2.196-2.98H7.076C6.668 0 4.912 1.93 4.22 2.98h-.835c-.51 0-3.385.15-3.385 1.49v2.32c0 .44.28.804.66.93.012-1.536 1.204-2.78 2.664-2.78 1.47 0 2.664 1.257 2.664 2.806v.017h5.658v-.016c0-1.55 1.197-2.805 2.664-2.805 1.47 0 2.664 1.255 2.667 2.8.42-.092.737-.482.737-.952v-2.58c0-.536-.908-1.23-1.417-1.23z"/><path d="M5.005 7.744c0-.977-.756-1.77-1.68-1.77-.93 0-1.683.793-1.683 1.77s.752 1.77 1.682 1.77c.925 0 1.68-.793 1.68-1.77M14.31 5.974c-.926 0-1.678.793-1.678 1.77 0 .978.752 1.77 1.68 1.77.927 0 1.68-.792 1.68-1.77 0-.977-.753-1.77-1.68-1.77"/></g></svg>