<svg width="14" height="14" viewBox="0 0 14 14" xmlns="http://www.w3.org/2000/svg"><title>Oval 10</title><path d="M12.293 5.5c.135.477.207.98.207 1.5s-.072 1.023-.207 1.5H9.93c.046-.483.07-.985.07-1.5s-.024-1.017-.07-1.5h2.363zM11.61 4C11 3.06 10.107 2.32 9.054 1.896c.272.596.496 1.31.658 2.104h1.9zM1.708 5.5c-.135.477-.207.98-.207 1.5s.072 1.023.207 1.5H4.07C4.023 8.017 4 7.515 4 7s.024-1.017.07-1.5H1.706zM2.39 4C3 3.06 3.893 2.32 4.946 1.896 4.675 2.492 4.45 3.206 4.29 4h-1.9zm6.054 1.5c.036.477.056.98.056 1.5s-.02 1.023-.056 1.5H5.556C5.52 8.023 5.5 7.52 5.5 7s.02-1.023.056-1.5h2.888zM8.257 4C7.99 2.495 7.527 1.5 7 1.5c-.527 0-.99.995-1.257 2.5h2.514zm3.354 6c-.612.94-1.504 1.68-2.557 2.104.272-.596.496-1.31.658-2.104h1.9zm-9.22 0c.612.94 1.504 1.68 2.557 2.104-.272-.596-.496-1.31-.658-2.104h-1.9zm5.867 0c-.267 1.505-.73 2.5-1.257 2.5-.527 0-.99-.995-1.257-2.5h2.514zM7 14c3.866 0 7-3.134 7-7s-3.134-7-7-7-7 3.134-7 7 3.134 7 7 7z" fill="#3777BC" fill-rule="evenodd"/></svg>