<svg width="14" height="14" viewBox="0 0 14 14" xmlns="http://www.w3.org/2000/svg"><title>Fill 1</title><path d="M10.783 9.38c-.16-.08-.393-.043-.52.082l-.907.903c-.125.127-.376.233-.556.235 0 0-1.156.01-3.308-2.13-2.15-2.144-2.14-3.3-2.14-3.3.004-.177.107-.427.235-.554l.772-.767c.126-.128.168-.363.092-.527L2.757.14C2.68-.017 2.514-.047 2.39.08L.284 2.17c-.125.123-.25.373-.275.55 0 0-.408 3.055 3.888 7.34 4.3 4.28 7.365 3.87 7.365 3.87.178-.02.428-.146.554-.273l2.104-2.092c.126-.127.1-.297-.06-.38l-3.077-1.804z" fill="#3777BC" fill-rule="evenodd"/></svg>